PathFileType	4	(X/Y/Z)	Walk5.trc
DataRate	CameraRate	NumFrames	NumMarkers	Units	OrigDataRate	OrigDataStartFrame	OrigNumFrames
200.000000	200.000000	5	69	mm	200.000000	331	453
Frame#	Times		LFHD		RFHD		LBHD		RBHD		C7		CLAV		STRN		RBack		LASI		RASI		LPSI		RPSI		RACR1		RUA1		RElbow		RFA1		RWRR		RWRU		RCAR		LACR1		LUA1		LElbow		LElbowM		LFA1		LWRR		LWRU		LCAR		RTH1		RTH3		RTH2		RTH4		RLFC		RTB1		RTB3		RTB2		RTB4		RLMAL		RMMAL		RCAL		RMT1		RMT5		RToe		LTH1		LTH3		LTH2		LTH4		LLFC		LTB1		LTB3		LTB2		LTB4		LMMAL		LMT1		LMT5		LHJC		LowerBodyModelVer		MidPelvis		OPelvis		PELOrigin		RHJC		SACR		XPelvis		YPelvis		ZPelvis		LToe		T10		LLMAL		LCAL		RElbowM
			X1	Y1	Z1	X2	Y2	Z2	X3	Y3	Z3	X4	Y4	Z4	X5	Y5	Z5	X6	Y6	Z6	X7	Y7	Z7	X8	Y8	Z8	X9	Y9	Z9	X10	Y10	Z10	X11	Y11	Z11	X12	Y12	Z12	X13	Y13	Z13	X14	Y14	Z14	X15	Y15	Z15	X16	Y16	Z16	X17	Y17	Z17	X18	Y18	Z18	X19	Y19	Z19	X20	Y20	Z20	X21	Y21	Z21	X22	Y22	Z22	X23	Y23	Z23	X24	Y24	Z24	X25	Y25	Z25	X26	Y26	Z26	X27	Y27	Z27	X28	Y28	Z28	X29	Y29	Z29	X30	Y30	Z30	X31	Y31	Z31	X32	Y32	Z32	X33	Y33	Z33	X34	Y34	Z34	X35	Y35	Z35	X36	Y36	Z36	X37	Y37	Z37	X38	Y38	Z38	X39	Y39	Z39	X40	Y40	Z40	X41	Y41	Z41	X42	Y42	Z42	X43	Y43	Z43	X44	Y44	Z44	X45	Y45	Z45	X46	Y46	Z46	X47	Y47	Z47	X48	Y48	Z48	X49	Y49	Z49	X50	Y50	Z50	X51	Y51	Z51	X52	Y52	Z52	X53	Y53	Z53	X54	Y54	Z54	X55	Y55	Z55	X56	Y56	Z56	X57	Y57	Z57	X58	Y58	Z58	X59	Y59	Z59	X60	Y60	Z60	X61	Y61	Z61	X62	Y62	Z62	X63	Y63	Z63	X64	Y64	Z64	X65	Y65	Z65	X66	Y66	Z66	X67	Y67	Z67	X68	Y68	Z68	X69	Y69	Z69

331	1.655	432.11	1589.1	-55.956	457.11	1586.8	35.772	277.02	1531.8	-48.7	314.53	1528.4	88.892	266.26	1405.2	17.003	402.44	1325.6	-0.49769	460.97	1219.8	1.638	220.93	1308.9	124.96	446.44	945.85	-132.73	442.86	961.81	161.61	197.02	948.31	-36.353	196.06	957.78	52.417	349.66	1360.9	159.59	343.98	1183.4	260.26	295.1	1065.8	297.59	320.3	920.66	321.71	419.95	836.48	293.69	360.92	817.27	331.13	432.2	789.4	348.17	330.69	1365.3	-151.31	292.65	1186.1	-243.29	238.22	1067.7	-266.98	215.12	1041.5	-190.31	223.69	933.25	-290.27	284.15	813.55	-263.05	229.25	817.41	-307.62	283.65	766.49	-306.58	339.28	731.27	225.63	283.68	576.32	174.85	362.86	644.13	175.8	309.34	653.17	198.51	250.63	493.99	151.55	250.46	335.87	74.136	200.74	170.52	66.187	202.64	257.73	125.22	225.6	253.2	70.161	136.97	67.561	83.978	153.98	74.014	2.5226	71.487	40.974	47.454	250.26	33.551	28.83	216.59	25.563	104.13	318.96	25.346	62.808	374.05	735.02	-204.84	445.9	586.84	-156.75	461.74	690.89	-173.5	409.58	662.92	-175.95	494.05	481.71	-124.63	590.33	364.72	-57.534	621.99	195.31	-66.617	580.83	276.18	-116.36	605.52	279.33	-60.503	630.85	86.033	-10.324	736.56	76.961	-37.231	708.09	55.861	-106.32	376.63	854.04	-81.362	9	2014	4	320.59	953.44	11.237	444.65	953.83	14.442	444.65	953.83	14.442	374.2	864.89	118.79	196.54	953.05	8.0322	524.64	954.02	15.404	444.51	1033.7	10.11	443.68	958.16	94.319	792.84	97.22	-71.423	189.48	1140.6	12.012	611.2	76.709	-92.705	563.09	29.965	-50.618	284.31	1028.2	206.22
332	1.66	437.76	1588.1	-56.501	462.79	1585.8	35.219	282.58	1531.1	-49.188	320.11	1527.6	88.392	271.66	1404.4	16.502	407.95	1324.7	-0.91253	466.48	1218.9	1.3376	226.35	1308	124.53	452.26	944.97	-132.85	448.18	961.05	161.48	202.65	947.31	-36.864	201.62	956.81	51.881	355.09	1360.1	159.14	349.69	1182.7	259.83	300.97	1065	297.32	326.28	919.97	321.6	425.89	835.76	293.55	366.96	816.63	331.17	438.31	788.84	348.12	336.12	1364.3	-151.79	297.3	1185.3	-243.72	242.47	1067	-267.19	219.83	1040.8	-190.41	227.37	932.66	-290.53	287.69	812.71	-263.91	232.39	816.78	-307.96	286.69	765.73	-307.5	344	730.66	225.41	287.61	576	174.52	367.16	643.44	175.55	313.67	652.7	198.25	254.16	493.81	151.25	252.94	335.54	73.893	201.87	170.59	65.963	204.39	257.87	125.02	227.41	253.07	69.928	137.27	68.172	83.788	154.39	74.44	2.3335	71.605	41.945	47.182	250.38	33.567	28.786	216.58	25.626	103.97	319.03	25.216	63.026	379.82	734.28	-205.32	451.41	585.79	-157.5	467.39	690.01	-173.54	415.18	661.98	-176.68	499.65	480.79	-124.93	597.44	365.31	-57.18	632.28	196.41	-66.271	589.95	276.65	-116.2	614.21	280.17	-60.154	642.84	87.214	-10.001	748.91	79.841	-36.057	721.36	58.085	-105.43	382.42	853.13	-81.559	9	2014	4	326.18	952.54	10.912	450.22	953.01	14.315	450.22	953.01	14.315	379.65	864.07	118.59	202.13	952.06	7.5083	530.21	953.26	15.41	450.03	1032.9	9.9478	449.11	957.38	94.188	805.23	100.98	-69.658	194.93	1139.7	11.541	623.9	77.498	-92.459	576.32	29.82	-50.74	290.08	1027.3	205.99
333	1.665	443.42	1587.1	-57.057	468.46	1584.7	34.655	288.14	1530.4	-49.697	325.7	1526.8	87.872	277.06	1403.5	15.966	413.47	1323.8	-1.3521	472	1218	1.0158	231.76	1307.1	124.06	458.12	944.09	-132.96	453.52	960.34	161.39	208.31	946.3	-37.404	207.2	955.83	51.317	360.5	1359.3	158.67	355.34	1181.9	259.41	306.8	1064.3	297	332.21	919.27	321.45	431.77	835.03	293.39	372.94	815.98	331.18	444.36	788.28	348.05	341.57	1363.4	-152.31	302.01	1184.5	-244.18	246.78	1066.3	-267.42	224.59	1040	-190.54	231.13	932.04	-290.8	291.31	811.86	-264.74	235.62	816.13	-308.31	289.81	764.95	-308.39	348.73	730.07	225.2	291.58	575.7	174.2	371.5	642.76	175.34	318.02	652.26	197.99	257.78	493.63	150.95	255.5	335.2	73.645	203.03	170.68	65.756	206.23	258.01	124.82	229.27	252.94	69.701	137.58	68.817	83.638	154.79	74.902	2.1803	71.725	42.971	46.971	250.49	33.586	28.739	216.57	25.693	103.85	319.09	25.096	63.222	385.62	733.54	-205.8	457.07	584.82	-158.2	473.11	689.19	-173.6	420.87	661.08	-177.4	505.4	479.92	-125.19	604.39	365.77	-56.812	642.04	197.38	-65.93	598.74	277.04	-116.04	622.55	280.88	-59.799	654.07	88.268	-9.6977	760.45	82.47	-34.921	733.79	60.157	-104.58	388.26	852.22	-81.734	9	2014	4	331.79	951.64	10.584	455.82	952.22	14.211	455.82	952.22	14.211	385.13	863.27	118.42	207.75	951.06	6.9564	535.81	952.53	15.445	455.58	1032.1	9.7985	454.57	956.63	94.08	816.82	104.44	-67.92	200.41	1138.7	11.038	635.85	78.218	-92.24	588.72	29.677	-50.911	295.85	1026.4	205.71
334	1.67	449.08	1586.1	-57.625	474.12	1583.7	34.081	293.72	1529.6	-50.227	331.28	1526	87.332	282.45	1402.6	15.398	419	1322.9	-1.817	477.52	1217.1	0.67235	237.16	1306.2	123.56	464.03	943.22	-133.06	458.87	959.66	161.32	214	945.29	-37.972	212.81	954.84	50.725	365.89	1358.5	158.18	360.93	1181.1	258.97	312.59	1063.5	296.65	338.1	918.57	321.25	437.61	834.28	293.19	378.87	815.33	331.17	450.34	787.7	347.96	347.03	1362.4	-152.85	306.79	1183.6	-244.65	251.16	1065.6	-267.67	229.41	1039.2	-190.68	234.96	931.41	-291.07	295.01	810.98	-265.56	238.94	815.47	-308.64	293.01	764.15	-309.24	353.47	729.51	224.98	295.61	575.41	173.89	375.88	642.1	175.18	322.42	651.83	197.71	261.49	493.45	150.67	258.14	334.84	73.393	204.24	170.78	65.568	208.15	258.15	124.64	231.19	252.81	69.481	137.92	69.498	83.53	155.19	75.399	2.0661	71.85	44.054	46.828	250.59	33.609	28.691	216.58	25.763	103.74	319.14	24.987	63.395	391.44	732.8	-206.25	462.9	583.93	-158.82	478.91	688.45	-173.67	426.68	660.22	-178.08	511.3	479.12	-125.42	611.18	366.09	-56.435	651.27	198.18	-65.599	607.18	277.35	-115.89	630.55	281.44	-59.446	664.51	89.156	-9.417	771.18	84.786	-33.835	745.36	62.023	-103.76	394.15	851.31	-81.892	9	2014	4	337.43	950.75	10.252	461.45	951.44	14.128	461.45	951.44	14.128	390.64	862.49	118.29	213.41	950.06	6.3765	541.44	951.83	15.507	461.14	1031.3	9.6618	460.05	955.9	93.991	827.61	107.53	-66.23	205.93	1137.8	10.503	647.01	78.83	-92.047	600.26	29.51	-51.127	301.62	1025.5	205.38
335	1.675	454.74	1585.1	-58.206	479.79	1582.6	33.495	299.3	1528.9	-50.78	336.86	1525.3	86.771	287.84	1401.7	14.797	424.52	1322.1	-2.3077	483.04	1216.2	0.3065	242.56	1305.3	123.01	469.98	942.37	-133.16	464.25	959.02	161.28	219.74	944.28	-38.568	218.46	953.85	50.106	371.28	1357.8	157.67	366.46	1180.4	258.53	318.32	1062.8	296.26	343.93	917.86	321	443.39	833.52	292.97	384.74	814.68	331.12	456.26	787.11	347.84	352.51	1361.5	-153.43	311.63	1182.8	-245.15	255.62	1064.8	-267.93	234.29	1038.4	-190.84	238.87	930.76	-291.34	298.8	810.1	-266.36	242.35	814.79	-308.98	296.29	763.35	-310.07	358.23	728.97	224.78	299.7	575.12	173.59	380.32	641.45	175.06	326.85	651.42	197.44	265.31	493.26	150.4	260.85	334.48	73.138	205.48	170.9	65.401	210.16	258.29	124.47	233.17	252.69	69.27	138.28	70.216	83.468	155.57	75.931	1.993	71.98	45.196	46.758	250.68	33.637	28.645	216.6	25.838	103.66	319.18	24.89	63.544	397.32	732.07	-206.68	468.9	583.14	-159.36	484.8	687.8	-173.73	432.6	659.41	-178.72	517.35	478.39	-125.6	617.81	366.25	-56.056	659.97	198.79	-65.279	615.27	277.54	-115.73	638.21	281.82	-59.096	674.17	89.843	-9.1595	781.1	86.733	-32.813	756.05	63.633	-103.01	400.07	850.4	-82.04	9	2014	4	343.11	949.88	9.9145	467.11	950.69	14.06	467.11	950.69	14.06	396.18	861.72	118.18	219.1	949.07	5.7689	547.1	951.15	15.59	466.74	1030.6	9.5359	465.56	955.21	93.917	837.6	110.18	-64.611	211.47	1136.9	9.936	657.39	79.3	-91.878	610.92	29.296	-51.376	307.39	1024.6	205.01
